<?xml version="1.0" standalone="no"?>
<!DOCTYPE svg PUBLIC "-//W3C//DTD SVG 20010904//EN"
 "http://www.w3.org/TR/2001/REC-SVG-20010904/DTD/svg10.dtd">
<svg version="1.0" xmlns="http://www.w3.org/2000/svg"
 width="278.000000pt" height="278.000000pt" viewBox="0 0 278.000000 278.000000"
 preserveAspectRatio="xMidYMid meet">
<metadata>
Created by potrace 1.14, written by Peter Selinger 2001-2017
</metadata>
<g transform="translate(0.000000,278.000000) scale(0.100000,-0.100000)"
fill="#000000" stroke="none">
<path d="M0 1390 l0 -1390 1390 0 1390 0 0 1390 0 1390 -1390 0 -1390 0 0
-1390z m1930 570 l0 -180 -310 0 -310 0 2 -167 3 -168 278 -3 277 -2 0 -175 0
-175 -277 -2 -278 -3 -3 -218 -2 -217 -205 0 -205 0 0 745 0 745 515 0 515 0
0 -180z"/>
</g>
</svg>
