<svg width="145" height="42" viewBox="0 0 145 42" fill="none" xmlns="http://www.w3.org/2000/svg">
<path d="M1.73478 18.8696H6.84V13.467H13.7048V9.05572H6.84V4.86746H14.4978V0.45615H1.73478V18.8696ZM28.4241 18.8696H34.2728L27.5319 0.45615H21.2124L15.1406 18.8696H20.6176L21.3611 16.3914H27.6063L28.4241 18.8696ZM22.1789 13.1201L24.2606 5.46224L26.6398 13.1201H22.1789ZM49.8434 18.8696H53.3626V0.45615H48.406V10.0718L40.2278 0.45615H36.6095V18.8696H41.566V9.0805L49.8434 18.8696ZM67.8209 18.8696H73.7935L67.4739 7.39528L72.9509 0.45615H67.5731L61.9474 8.08919V0.45615H56.8422V18.8696H61.9474V14.4335L63.8557 12.0296L67.8209 18.8696ZM92.1218 0.45615H86.4714L83.1009 12.7483L79.557 0.45615H73.7331L79.7305 18.8696H85.9261L92.1218 0.45615ZM94.4759 18.8696H107.561V14.4583H99.5812V11.2118H106.496V8.03963H99.5812V4.86746H107.289V0.45615H94.4759V18.8696ZM123.804 18.8696H127.323V0.45615H122.367V10.0718L114.188 0.45615H110.57V18.8696H115.527V9.0805L123.804 18.8696ZM144.285 5.46224V0.45615H129.836V5.46224H134.52V18.8696H139.625V5.46224H144.285Z" fill="#6C79B0"/>
<path d="M6.68139 38.1075C10.0518 38.1075 12.2922 36.4223 12.2922 33.5872C12.2922 30.9503 10.3096 29.9194 7.11757 29.2255C5.19444 28.7893 4.71861 28.5117 4.71861 27.8773C4.71861 27.342 5.17461 26.9455 6.10644 26.9455C7.33565 26.9455 8.72348 27.4213 9.99235 28.3135L11.9155 25.5973C10.4087 24.3879 8.56487 23.7535 6.20557 23.7535C2.87478 23.7535 0.832696 25.6171 0.832696 28.1945C0.832696 31.0891 3.1127 31.9218 6.06678 32.5959C7.95026 33.0321 8.40626 33.3493 8.40626 33.9242C8.40626 34.5587 7.85113 34.9155 6.82017 34.9155C5.21426 34.9155 3.68765 34.3406 2.31965 33.2502L0.178435 35.8077C1.88348 37.3343 4.22296 38.1075 6.68139 38.1075ZM18.0828 37.9688H21.6515L27.2821 23.9914H23.0591L19.9068 32.7743L16.7544 23.9914H12.4522L18.0828 37.9688ZM32.0159 37.8696H35.8621V27.3618H40.0256V23.9914H27.8524V27.3618H32.0159V37.8696ZM46.2343 37.9688H49.803L55.4336 23.9914H51.2106L48.0583 32.7743L44.9059 23.9914H40.6037L46.2343 37.9688ZM61.6543 41.0815C63.7162 41.0815 65.2429 40.6453 66.2342 39.654C67.1263 38.7618 67.5823 37.374 67.5823 35.4707V27.2428H64.5688V28.6307C63.7559 27.7385 62.7844 27.0446 61.1388 27.0446C58.7002 27.0446 56.4202 28.8289 56.4202 32.0011C56.4202 35.1931 58.6606 36.9973 61.1388 36.9973C62.7448 36.9973 63.7162 36.343 64.6084 35.2724V35.7879C64.6084 37.6912 63.6369 38.6825 61.575 38.6825C60.1674 38.6825 59.0769 38.3256 57.9865 37.711L56.9555 39.9712C58.3037 40.6849 59.9295 41.0815 61.6543 41.0815ZM62.0112 34.4992C60.5441 34.4992 59.4338 33.5079 59.4338 32.0408C59.4338 30.5538 60.5441 29.5427 62.0112 29.5427C63.4783 29.5427 64.6084 30.5538 64.6084 32.0011C64.6084 33.4881 63.4783 34.4992 62.0112 34.4992ZM70.2748 37.8696H73.2884V33.9441C73.2884 31.4063 74.5176 30.1969 76.52 30.1969H76.6786V27.0446C74.8943 26.9653 73.903 27.9169 73.2884 29.3841V27.2428H70.2748V37.8696ZM83.4853 38.1075C86.7963 38.1075 89.2547 35.6293 89.2547 32.5761C89.2547 29.4832 86.8161 27.0446 83.525 27.0446C80.214 27.0446 77.7556 29.5228 77.7556 32.5761C77.7556 35.6689 80.1942 38.1075 83.4853 38.1075ZM83.525 35.5103C81.8596 35.5103 80.7295 34.1423 80.7295 32.5761C80.7295 30.9702 81.7605 29.6418 83.4853 29.6418C85.1507 29.6418 86.2808 31.0098 86.2808 32.5761C86.2808 34.182 85.2498 35.5103 83.525 35.5103ZM94.9659 38.0679C96.4925 38.0679 97.3847 37.255 98.0786 36.3628V37.8696H101.092V27.2428H98.0786V33.1708C98.0786 34.5983 97.345 35.3319 96.1951 35.3319C95.0452 35.3319 94.3711 34.5983 94.3711 33.1708V27.2428H91.3575V34.1225C91.3575 36.5611 92.6859 38.0679 94.9659 38.0679ZM103.789 41.0418H106.803V36.4818C107.517 37.3343 108.508 38.0679 110.114 38.0679C112.632 38.0679 114.951 36.1249 114.951 32.5761C114.951 28.9875 112.592 27.0446 110.114 27.0446C108.548 27.0446 107.537 27.7782 106.803 28.7695V27.2428H103.789V41.0418ZM109.341 35.5103C107.933 35.5103 106.763 34.3406 106.763 32.5761C106.763 30.7719 107.933 29.6022 109.341 29.6022C110.748 29.6022 111.938 30.7719 111.938 32.5364C111.938 34.3604 110.748 35.5103 109.341 35.5103Z" fill="#6C79B0" fill-opacity="0.5"/>
</svg>
