<svg width="62" height="62" viewBox="0 0 62 62" fill="none" xmlns="http://www.w3.org/2000/svg">
<g clip-path="url(#clip0_18_63)">
<path d="M30.9972 61.9949C26.8271 61.9949 22.6587 62 18.4886 61.9949C9.21632 61.9829 1.88179 55.8607 0.255889 46.7424C0.0708557 45.7095 0.0177442 44.6406 0.0160309 43.5888C-0.0028151 35.2208 -0.00110182 26.8546 0.00575128 18.4883C0.0160309 9.20735 6.13585 1.87918 15.2556 0.255261C16.2904 0.0719712 17.3578 0.0171555 18.4098 0.0154425C26.8065 -0.00340042 35.2016 -0.00340042 43.5966 0.00687753C52.8294 0.0188685 60.1897 6.22504 61.7608 15.3381C61.9389 16.3728 61.9852 17.4417 61.9869 18.4935C62.004 26.8323 62.004 35.1694 61.9955 43.5083C61.9852 52.791 55.8654 60.1192 46.7439 61.7379C45.6834 61.9264 44.5852 61.976 43.5058 61.9829C39.3374 62.0103 35.1673 61.9932 30.9989 61.9932L30.9972 61.9949ZM46.4749 31.0651C46.5229 22.5207 39.6595 15.5882 31.088 15.5232C22.5507 15.4581 15.5966 22.3237 15.5263 30.8887C15.4544 39.4622 22.3623 46.4392 30.9561 46.4752C39.4967 46.5112 46.4286 39.6266 46.4766 31.0634L46.4749 31.0651ZM46.4903 12.9537C46.5092 14.3378 47.7016 15.5163 49.0791 15.5129C50.5045 15.5094 51.6884 14.2847 51.6456 12.8577C51.6045 11.4497 50.424 10.3225 49.0243 10.3516C47.6245 10.3808 46.4715 11.5661 46.4903 12.9537ZM30.9492 41.3105C36.6835 41.3345 41.3077 36.7385 41.3111 31.0069C41.3145 25.306 36.7486 20.7118 31.0537 20.6878C25.3194 20.6638 20.6953 25.2598 20.6918 30.9897C20.6884 36.6854 25.2611 41.2865 30.9509 41.3105H30.9492Z" fill="#6C79B0"/>
</g>
<defs>
<clipPath id="clip0_18_63">
<rect width="62" height="62" fill="white"/>
</clipPath>
</defs>
</svg>
